<svg width="227" height="35" viewBox="0 0 227 35" fill="none" xmlns="http://www.w3.org/2000/svg">
<path d="M17.08 28.32C12.6267 28.5333 9.42667 27.4267 7.48 25C5.13333 26.8133 3.41333 27.72 2.32 27.72C1.73333 27.72 1.29333 27.4267 1 26.84C0.733333 26.28 0.6 25.6667 0.6 25C0.6 23.72 1.09333 21.88 2.08 19.48C3.25333 16.76 4.33333 15.4 5.32 15.4C5.82667 15.4 6.21333 16.2 6.48 17.8C6.93333 20.2 7.34667 21.8533 7.72 22.76C8.6 21.8267 9.69333 20.56 11 18.96C12.3333 17.36 13.8667 15.4267 15.6 13.16C19.92 7.48 22.7867 4.37333 24.2 3.84C24.68 3.65333 25.16 3.56 25.64 3.56C26.1733 3.56 26.6 3.68 26.92 3.92C27.2667 4.13333 27.44 4.38667 27.44 4.68C27.44 5.13333 27.0533 5.4 26.28 5.48C25.72 5.77333 25.0267 6.28 24.2 7C23.4 7.72 22.5467 8.54667 21.64 9.48C20.76 10.3867 19.9333 11.2933 19.16 12.2C18.3867 13.08 17.76 13.84 17.28 14.48C14.4267 18.4533 11.5733 21.6267 8.72 24L8.48 24.2C9.33333 25.4533 10.36 26.32 11.56 26.8C12.76 27.28 14.0933 27.52 15.56 27.52C17.9867 27.52 20.2933 27.1467 22.48 26.4C24.6933 25.68 26.68 24.6 28.44 23.16C30.2267 21.6933 31.6933 19.9067 32.84 17.8C34.0933 15.5067 34.72 13.32 34.72 11.24C34.72 9.82667 34.4133 8.49333 33.8 7.24C33.1867 5.96 32.36 4.86667 31.32 3.96C30.3067 3.05333 29.1733 2.46667 27.92 2.2C26.4533 1.88 24.92 1.72 23.32 1.72C19.2133 1.72 15.4267 2.66667 11.96 4.56C8.30667 6.56 6.48 8.8 6.48 11.28C6.48 11.9467 6.68 12.52 7.08 13C7.4 13.3733 7.62667 13.5867 7.76 13.64H7.52C6.77333 13.5067 6.13333 13.1333 5.6 12.52C5.06667 11.9067 4.8 11.2267 4.8 10.48C4.8 9.09333 5.22667 7.82667 6.08 6.68C6.96 5.50667 8.22667 4.44 9.88 3.48C13.1867 1.58667 17.0933 0.64 21.6 0.64C22.6133 0.64 23.6267 0.693333 24.64 0.799998C25.6533 0.906665 26.6533 1.06667 27.64 1.28C29.3733 1.65333 30.9467 2.36 32.36 3.4C33.7733 4.44 34.9067 5.70667 35.76 7.2C36.6133 8.69333 37.04 10.3067 37.04 12.04C37.04 14.04 36.4533 16.1067 35.28 18.24C34.1067 20.4 32.5867 22.2133 30.72 23.68C28.88 25.12 26.8 26.2133 24.48 26.96C22.16 27.7333 19.6933 28.1867 17.08 28.32ZM2.52 27C3.66667 26.4933 5.05333 25.44 6.68 23.84C5.90667 22.56 5.4 21.48 5.16 20.6C5 20.0133 4.88 19.12 4.8 17.92C2.96 20.56 2.04 22.8667 2.04 24.84C2.04 25.6667 2.2 26.3867 2.52 27ZM45.6759 12.24C45.2226 12.24 44.8226 12.0933 44.4759 11.8C44.1559 11.5067 43.9959 11.1733 43.9959 10.8C43.9959 10.0533 44.5026 9.68 45.5159 9.68C45.8893 9.68 46.2626 9.81333 46.6359 10.08C47.0093 10.32 47.1959 10.6267 47.1959 11C47.1959 11.32 47.0226 11.6133 46.6759 11.88C46.3293 12.12 45.9959 12.24 45.6759 12.24ZM38.2759 26.44C37.6893 26.44 37.2093 26.2533 36.8359 25.88C36.4359 25.48 36.2359 24.7867 36.2359 23.8C36.2359 23.24 36.3693 22.6 36.6359 21.88C36.8759 21.1333 37.1826 20.3867 37.5559 19.64C37.9559 18.8933 38.3426 18.2267 38.7159 17.64C40.2093 15.2133 41.4359 13.9867 42.3959 13.96C42.6359 13.96 42.9293 14.0667 43.2759 14.28C43.6226 14.4667 43.7959 14.68 43.7959 14.92C43.7959 14.92 42.7826 16.2267 40.7559 18.84C38.7559 21.4267 37.7559 23.2667 37.7559 24.36C37.7559 25.2133 38.0893 25.64 38.7559 25.64C39.1826 25.64 39.7293 25.4667 40.3959 25.12C41.0893 24.7467 41.8093 24.28 42.5559 23.72C43.3026 23.16 44.0093 22.56 44.6759 21.92C45.3693 21.28 45.9293 20.6933 46.3559 20.16C46.6226 19.8133 46.8493 19.5733 47.0359 19.44C47.2493 19.3067 47.3826 19.24 47.4359 19.24C47.5426 19.24 47.5959 19.32 47.5959 19.48C47.5959 19.6133 47.4359 19.88 47.1159 20.28C46.8226 20.68 46.4093 21.1467 45.8759 21.68C45.2359 22.32 44.5293 23.0133 43.7559 23.76C42.9826 24.5067 42.1426 25.1467 41.2359 25.68C40.3293 26.1867 39.3426 26.44 38.2759 26.44ZM45.4194 34.2C44.6194 34.2 43.9394 33.8667 43.3794 33.2C42.8194 32.5333 42.526 31.8133 42.4994 31.04C42.5794 30.72 42.6994 30.56 42.8594 30.56C43.0194 30.56 43.1127 30.76 43.1394 31.16C43.166 31.5867 43.3794 32 43.7794 32.4C44.1794 32.8 44.566 33 44.9394 33C46.486 33 48.1127 32 49.8194 30C50.4327 29.28 51.0594 28.4267 51.6994 27.44C52.366 26.48 53.006 25.3867 53.6194 24.16L55.6194 20.2L52.6194 23.24C51.686 24.1733 50.8727 24.8667 50.1794 25.32C49.5127 25.7733 48.9927 26 48.6194 26C47.9794 26 47.3394 25.7733 46.6994 25.32C46.0594 24.84 45.6994 24.2933 45.6194 23.68C45.3527 21.6267 46.646 19.1867 49.4994 16.36C52.3527 13.56 54.8994 12.16 57.1394 12.16C57.7527 12.16 58.2327 12.3067 58.5794 12.6C58.766 12.76 58.8994 13 58.9794 13.32C59.086 13.64 59.166 13.8 59.2194 13.8C59.326 13.8 59.4194 13.7867 59.4994 13.76C59.5794 13.7067 59.6727 13.68 59.7794 13.68C60.126 13.68 60.406 13.8 60.6194 14.04C60.8594 14.28 60.9394 14.52 60.8594 14.76C60.8327 15 60.446 15.72 59.6994 16.92C59.2194 17.72 58.6727 18.6933 58.0594 19.84C57.446 20.96 56.7927 22.1333 56.0994 23.36C55.4327 24.56 54.7794 25.68 54.1394 26.72C53.4994 27.7867 52.926 28.6533 52.4194 29.32C49.966 32.5733 47.6327 34.2 45.4194 34.2ZM48.2594 25.08C49.806 25.08 51.9127 23.3867 54.5794 20L58.8194 14.16C58.6594 13.7867 58.326 13.6 57.8194 13.6C56.166 13.6 53.9527 14.9067 51.1794 17.52C48.2994 20.24 47.006 22.44 47.2994 24.12C47.4327 24.76 47.7527 25.08 48.2594 25.08ZM69.5041 12.24C69.0507 12.24 68.6507 12.0933 68.3041 11.8C67.9841 11.5067 67.8241 11.1733 67.8241 10.8C67.8241 10.0533 68.3307 9.68 69.3441 9.68C69.7174 9.68 70.0907 9.81333 70.4641 10.08C70.8374 10.32 71.0241 10.6267 71.0241 11C71.0241 11.32 70.8507 11.6133 70.5041 11.88C70.1574 12.12 69.8241 12.24 69.5041 12.24ZM62.1041 26.44C61.5174 26.44 61.0374 26.2533 60.6641 25.88C60.2641 25.48 60.0641 24.7867 60.0641 23.8C60.0641 23.24 60.1974 22.6 60.4641 21.88C60.7041 21.1333 61.0107 20.3867 61.3841 19.64C61.7841 18.8933 62.1707 18.2267 62.5441 17.64C64.0374 15.2133 65.2641 13.9867 66.2241 13.96C66.4641 13.96 66.7574 14.0667 67.1041 14.28C67.4507 14.4667 67.6241 14.68 67.6241 14.92C67.6241 14.92 66.6107 16.2267 64.5841 18.84C62.5841 21.4267 61.5841 23.2667 61.5841 24.36C61.5841 25.2133 61.9174 25.64 62.5841 25.64C63.0107 25.64 63.5574 25.4667 64.2241 25.12C64.9174 24.7467 65.6374 24.28 66.3841 23.72C67.1307 23.16 67.8374 22.56 68.5041 21.92C69.1974 21.28 69.7574 20.6933 70.1841 20.16C70.4507 19.8133 70.6774 19.5733 70.8641 19.44C71.0774 19.3067 71.2107 19.24 71.2641 19.24C71.3707 19.24 71.4241 19.32 71.4241 19.48C71.4241 19.6133 71.2641 19.88 70.9441 20.28C70.6507 20.68 70.2374 21.1467 69.7041 21.68C69.0641 22.32 68.3574 23.0133 67.5841 23.76C66.8107 24.5067 65.9707 25.1467 65.0641 25.68C64.1574 26.1867 63.1707 26.44 62.1041 26.44ZM72.1675 26.24C71.3142 26.24 70.6342 26.04 70.1275 25.64C69.6475 25.2133 69.4075 24.4667 69.4075 23.4C69.4075 22.7867 69.5942 22.0133 69.9675 21.08C70.3408 20.12 70.8075 19.0933 71.3675 18C71.9275 16.9067 72.4875 15.8267 73.0475 14.76C72.7008 14.84 72.3942 14.88 72.1275 14.88C71.3275 14.88 70.9275 14.5733 70.9275 13.96C70.9275 13.6667 71.0342 13.44 71.2475 13.28C71.4875 13.12 71.7008 13.0267 71.8875 13C71.8875 13 71.9142 13 71.9675 13C72.0475 13 72.1408 12.9867 72.2475 12.96H74.5675C75.0475 12.3467 75.5408 11.6933 76.0475 11C76.7675 10.0933 77.3408 9.56 77.7675 9.4H77.8875C78.0742 9.4 78.3408 9.49333 78.6875 9.68C79.1142 9.92 79.3275 10.16 79.3275 10.4C79.3275 10.7467 78.6875 11.64 77.4075 13.08C77.6475 13.1067 77.9942 13.12 78.4475 13.12C78.9008 13.12 79.4608 13.12 80.1275 13.12C80.4475 13.12 80.9008 13.12 81.4875 13.12C82.1008 13.12 82.7275 13.12 83.3675 13.12C84.0342 13.0933 84.6075 13.08 85.0875 13.08C85.5675 13.0533 85.8342 13.04 85.8875 13.04C85.9675 13.0667 86.0075 13.1067 86.0075 13.16C86.0075 13.4 84.4342 13.72 81.2875 14.12C79.5008 14.36 78.1275 14.5467 77.1675 14.68C76.2342 14.8133 75.7275 14.8933 75.6475 14.92C75.2742 15.24 74.8208 15.7867 74.2875 16.56C73.7542 17.3333 73.2208 18.2 72.6875 19.16C72.1542 20.12 71.7008 21.04 71.3275 21.92C70.9808 22.7733 70.8075 23.44 70.8075 23.92C70.8075 24.3467 70.9675 24.7067 71.2875 25C71.6075 25.2667 72.1275 25.4 72.8475 25.4C73.3275 25.4 73.9008 25.2933 74.5675 25.08C75.2342 24.8667 75.8608 24.6267 76.4475 24.36C77.0608 24.0667 77.5008 23.84 77.7675 23.68C78.4608 23.2533 79.2208 22.6933 80.0475 22C80.9008 21.28 81.7408 20.4667 82.5675 19.56C82.9408 19.1867 83.1942 19 83.3275 19C83.4075 19 83.4475 19.0533 83.4475 19.16C83.4475 19.3733 83.2475 19.72 82.8475 20.2C82.2075 20.9733 81.4875 21.72 80.6875 22.44C79.9142 23.1333 79.0475 23.7733 78.0875 24.36C76.9942 25.0267 75.9408 25.5067 74.9275 25.8C73.9408 26.0933 73.0208 26.24 72.1675 26.24ZM84.2425 26.2C83.6025 26.2 82.9625 25.9733 82.3225 25.52C81.6825 25.0667 81.3225 24.5333 81.2425 23.92C80.9758 21.8667 82.2692 19.4267 85.1225 16.6C87.9492 13.7733 90.4958 12.36 92.7625 12.36C93.3758 12.36 93.8558 12.5067 94.2025 12.8C94.3892 12.9867 94.5225 13.24 94.6025 13.56C94.7092 13.88 94.7892 14.04 94.8425 14.04C94.9492 14.04 95.0425 14.0267 95.1225 14C95.2025 13.9467 95.2958 13.92 95.4025 13.92C95.7225 13.92 96.0025 14.04 96.2425 14.28C96.4825 14.52 96.6158 14.7333 96.6425 14.92C96.6692 14.9733 95.8158 16.2933 94.0825 18.88C92.3492 21.4133 91.5625 23.1333 91.7225 24.04C91.8558 24.6533 92.1492 24.96 92.6025 24.96C93.9892 24.96 96.5225 22.6667 100.203 18.08C100.283 17.9733 100.363 17.92 100.443 17.92C100.576 17.92 100.643 18.0133 100.643 18.2C100.643 18.4133 100.523 18.68 100.283 19C96.8958 23.56 94.2958 25.84 92.4825 25.84C92.2425 25.84 92.0158 25.8 91.8025 25.72C90.6292 25.2667 90.0425 24.3867 90.0425 23.08C90.0425 22.6267 90.0958 22.1733 90.2025 21.72L87.7225 24.12C86.9758 24.8667 86.2958 25.4 85.6825 25.72C85.0958 26.04 84.6158 26.2 84.2425 26.2ZM83.8825 25.32C85.4292 25.32 87.5358 23.6267 90.2025 20.24L94.4425 14.4C94.2292 14.0267 93.8825 13.84 93.4025 13.84C91.7758 13.84 89.5758 15.1467 86.8025 17.76C83.9225 20.4267 82.6292 22.6267 82.9225 24.36C83.0558 25 83.3758 25.32 83.8825 25.32ZM101.087 26.08C100.314 26.08 99.5935 25.8933 98.9269 25.52C98.2602 25.12 97.9269 24.4667 97.9269 23.56C97.9269 22.3067 98.3669 20.8133 99.2469 19.08C100.154 17.3467 101.18 15.5467 102.327 13.68C105.447 8.61333 107.66 6.08 108.967 6.08C109.234 6.08 109.5 6.18667 109.767 6.4C110.06 6.58667 110.22 6.8 110.247 7.04L107.447 10.8C106.354 12.2667 105.367 13.6267 104.487 14.88C103.607 16.1067 102.847 17.2133 102.207 18.2C101.887 18.7067 101.527 19.28 101.127 19.92C100.727 20.56 100.367 21.2267 100.047 21.92C99.7535 22.5867 99.6069 23.2667 99.6069 23.96C99.6069 24.28 99.7002 24.5733 99.8869 24.84C100.074 25.08 100.407 25.2 100.887 25.2C101.74 25.2 102.86 24.7467 104.247 23.84C105.634 22.9067 107.007 21.6267 108.367 20C108.5 19.84 108.647 19.6933 108.807 19.56C108.967 19.4267 109.1 19.36 109.207 19.36C109.34 19.36 109.407 19.44 109.407 19.6C109.407 19.68 109.314 19.84 109.127 20.08C108.967 20.2933 108.834 20.4667 108.727 20.6L107.767 21.68C107.234 22.2667 106.594 22.9067 105.847 23.6C105.127 24.2933 104.354 24.88 103.527 25.36C102.727 25.84 101.914 26.08 101.087 26.08ZM126.863 29.8C125.77 29.8 124.41 29.1467 122.783 27.84C121.636 27.6533 120.65 27.4 119.823 27.08C119.023 26.7867 118.356 26.4267 117.823 26C117.076 25.36 116.423 24.5067 115.863 23.44C115.303 22.3733 115.023 21.3467 115.023 20.36C115.023 19.6133 115.196 18.9467 115.543 18.36C116.343 16.9467 117.356 16.24 118.583 16.24C119.516 16.24 120.063 17.0267 120.223 18.6C120.41 20.0667 120.556 21.24 120.663 22.12C120.796 22.9733 120.903 23.5333 120.983 23.8C121.383 25.1067 122.063 26.2133 123.023 27.12C124.143 27.36 125.356 27.48 126.663 27.48C129.543 27.48 132.303 26.9333 134.943 25.84C136.063 25.36 137.156 24.7333 138.223 23.96C139.29 23.1867 140.17 22.3333 140.863 21.4C141.556 20.4667 141.903 19.56 141.903 18.68C141.903 17.4267 140.796 16.4533 138.583 15.76L131.543 14.16C130.103 13.84 128.943 13.28 128.063 12.48C127.21 11.6533 126.783 10.72 126.783 9.68C126.783 8.08 127.783 6.48 129.783 4.88C130.796 4.05333 131.983 3.36 133.343 2.8C134.703 2.21333 136.13 1.77333 137.623 1.48C139.143 1.16 140.596 1 141.983 1C143.956 1 145.636 1.30667 147.023 1.92C148.436 2.53333 149.316 3.42666 149.663 4.6C149.743 4.86667 149.783 5.16 149.783 5.48C149.783 7.10667 148.97 8.24 147.343 8.88C146.356 9.28 145.516 9.48 144.823 9.48C144.396 9.48 144.063 9.4 143.823 9.24C143.77 9.18667 143.743 9.12 143.743 9.04C143.743 8.85333 144.116 8.74667 144.863 8.72C145.316 8.69333 145.69 8.65333 145.983 8.6C146.276 8.54667 146.49 8.49333 146.623 8.44C147.636 7.90667 148.143 7.12 148.143 6.08C148.143 5.54667 147.996 4.98667 147.703 4.4C146.876 2.88 144.81 2.12 141.503 2.12C140.303 2.12 139.063 2.25333 137.783 2.52C136.503 2.76 135.29 3.13333 134.143 3.64C132.996 4.12 132.023 4.73333 131.223 5.48C129.836 6.76 129.143 7.90667 129.143 8.92C129.143 9.69333 129.516 10.3867 130.263 11C131.036 11.5867 132.196 12.0267 133.743 12.32L138.463 13.2C140.276 13.5467 141.743 14.0667 142.863 14.76C143.983 15.4267 144.543 16.4533 144.543 17.84C144.543 19.0667 144.236 20.2133 143.623 21.28C143.01 22.3467 142.183 23.3067 141.143 24.16C140.13 24.9867 138.97 25.68 137.663 26.24C134.703 27.5467 131.21 28.2 127.183 28.2C126.676 28.2 126.17 28.1867 125.663 28.16C125.156 28.1333 124.663 28.0933 124.183 28.04C124.556 28.2533 125.023 28.4667 125.583 28.68C126.17 28.8933 126.836 29.0933 127.583 29.28C127.663 29.3067 127.703 29.36 127.703 29.44C127.703 29.68 127.423 29.8 126.863 29.8ZM121.583 26.72C120.863 25.92 120.303 25.0933 119.903 24.24C119.316 22.9067 118.876 21.2667 118.583 19.32C118.37 17.9067 118.143 17.2 117.903 17.2C117.69 17.2 117.396 17.36 117.023 17.68C116.676 18 116.503 18.68 116.503 19.72C116.503 21.7467 117.223 23.5067 118.663 25C119.383 25.7467 120.356 26.32 121.583 26.72ZM147.505 26.44C146.305 26.44 145.705 25.68 145.705 24.16C145.705 23.5733 145.878 22.88 146.225 22.08C146.598 21.2533 147.118 20.3867 147.785 19.48C147.785 19.48 147.545 19.7067 147.065 20.16C146.585 20.6133 146.038 21.1867 145.425 21.88C145.318 21.9867 145.185 22.04 145.025 22.04C144.918 22.04 144.865 21.9733 144.865 21.84C144.865 21.7067 144.985 21.48 145.225 21.16L150.745 14.68C151.438 13.88 152.198 13.48 153.025 13.48C153.638 13.48 153.945 13.72 153.945 14.2C153.945 14.3867 153.865 14.56 153.705 14.72C153.198 15.2 152.572 15.88 151.825 16.76C151.105 17.64 150.398 18.5867 149.705 19.6C149.012 20.6133 148.425 21.5867 147.945 22.52C147.492 23.4267 147.265 24.16 147.265 24.72C147.265 25.2 147.425 25.44 147.745 25.44C147.932 25.44 148.225 25.3733 148.625 25.24C149.025 25.08 149.558 24.7733 150.225 24.32C150.892 23.84 151.692 23.1067 152.625 22.12C152.785 21.96 153.212 21.48 153.905 20.68C154.598 19.88 155.532 18.7333 156.705 17.24C158.785 14.6533 160.145 13.36 160.785 13.36C161.665 13.36 162.145 13.72 162.225 14.44C162.278 14.68 161.718 15.4667 160.545 16.8C159.025 18.64 157.985 19.96 157.425 20.76C156.385 22.28 155.865 23.4667 155.865 24.32C155.865 24.9067 156.065 25.2 156.465 25.2C156.865 25.2 157.372 25.0133 157.985 24.64C158.625 24.24 159.292 23.7467 159.985 23.16C160.678 22.5467 161.345 21.92 161.985 21.28C162.652 20.6133 163.225 20 163.705 19.44C163.865 19.2533 164.025 19.16 164.185 19.16C164.345 19.16 164.425 19.24 164.425 19.4C164.425 19.4533 164.412 19.5333 164.385 19.64C164.358 19.7467 164.278 19.8667 164.145 20C163.718 20.48 163.172 21.08 162.505 21.8C161.838 22.4933 161.118 23.1867 160.345 23.88C159.572 24.5733 158.825 25.1467 158.105 25.6C157.385 26.0533 156.772 26.28 156.265 26.28C155.652 26.28 155.118 26.12 154.665 25.8C154.212 25.4533 153.985 24.9867 153.985 24.4C153.985 23.8133 154.078 23.2267 154.265 22.64C154.452 22.0267 154.598 21.5067 154.705 21.08C153.452 22.5467 152.345 23.6667 151.385 24.44C150.452 25.2133 149.665 25.7333 149.025 26C148.385 26.2933 147.878 26.44 147.505 26.44ZM165.657 26.52C164.804 26.52 164.031 26.2533 163.337 25.72C162.644 25.16 162.297 24.4267 162.297 23.52C162.297 21.6267 163.457 19.4667 165.777 17.04C168.151 14.5867 170.271 13.36 172.137 13.36C172.777 13.36 173.284 13.5333 173.657 13.88C174.031 14.2 174.217 14.6 174.217 15.08C174.217 15.7467 174.057 16.36 173.737 16.92C173.364 17.6133 172.831 17.96 172.137 17.96C171.444 17.96 171.097 17.7467 171.097 17.32C171.097 17.0267 171.271 16.5867 171.617 16C171.991 15.3867 172.177 15.0667 172.177 15.04C172.177 14.9867 172.137 14.96 172.057 14.96C171.311 15.04 170.271 15.5867 168.937 16.6C168.351 17.0533 167.831 17.48 167.377 17.88C166.951 18.28 166.604 18.6667 166.337 19.04L164.777 21.32C164.617 21.56 164.444 21.9733 164.257 22.56C164.097 23.1467 164.017 23.5867 164.017 23.88C164.017 24.4133 164.191 24.8533 164.537 25.2C164.911 25.5467 165.377 25.72 165.937 25.72C167.271 25.72 169.031 24.8533 171.217 23.12C172.977 21.7333 174.391 20.3333 175.457 18.92C175.591 18.76 175.751 18.68 175.937 18.68C176.124 18.68 176.217 18.7333 176.217 18.84C176.217 18.92 176.151 19.0533 176.017 19.24C174.551 21.1867 172.831 22.8667 170.857 24.28C168.751 25.7733 167.017 26.52 165.657 26.52ZM176.985 26.52C176.132 26.52 175.359 26.2533 174.665 25.72C173.972 25.16 173.625 24.4267 173.625 23.52C173.625 21.6267 174.785 19.4667 177.105 17.04C179.479 14.5867 181.599 13.36 183.465 13.36C184.105 13.36 184.612 13.5333 184.985 13.88C185.359 14.2 185.545 14.6 185.545 15.08C185.545 15.7467 185.385 16.36 185.065 16.92C184.692 17.6133 184.159 17.96 183.465 17.96C182.772 17.96 182.425 17.7467 182.425 17.32C182.425 17.0267 182.599 16.5867 182.945 16C183.319 15.3867 183.505 15.0667 183.505 15.04C183.505 14.9867 183.465 14.96 183.385 14.96C182.639 15.04 181.599 15.5867 180.265 16.6C179.679 17.0533 179.159 17.48 178.705 17.88C178.279 18.28 177.932 18.6667 177.665 19.04L176.105 21.32C175.945 21.56 175.772 21.9733 175.585 22.56C175.425 23.1467 175.345 23.5867 175.345 23.88C175.345 24.4133 175.519 24.8533 175.865 25.2C176.239 25.5467 176.705 25.72 177.265 25.72C178.599 25.72 180.359 24.8533 182.545 23.12C184.305 21.7333 185.719 20.3333 186.785 18.92C186.919 18.76 187.079 18.68 187.265 18.68C187.452 18.68 187.545 18.7333 187.545 18.84C187.545 18.92 187.479 19.0533 187.345 19.24C185.879 21.1867 184.159 22.8667 182.185 24.28C180.079 25.7733 178.345 26.52 176.985 26.52ZM187.313 26.52C186.46 26.52 185.687 26.2533 184.993 25.72C184.3 25.16 183.953 24.4267 183.953 23.52C183.953 21.6267 185.113 19.4667 187.433 17.04C189.807 14.5867 191.927 13.36 193.793 13.36C194.407 13.36 194.9 13.5333 195.273 13.88C195.673 14.2 195.873 14.6 195.873 15.08C195.873 16.5733 194.687 18.04 192.313 19.48C190.207 20.76 188.433 21.4 186.993 21.4C186.78 21.4 186.593 21.3733 186.433 21.32C186.033 22.04 185.833 22.8 185.833 23.6C185.833 24.9867 186.487 25.68 187.793 25.68C189.127 25.68 190.847 24.7867 192.953 23C194.58 21.6933 195.967 20.3067 197.113 18.84C197.353 18.52 197.567 18.36 197.753 18.36C197.913 18.36 197.993 18.44 197.993 18.6C197.993 18.76 197.887 18.9867 197.673 19.28C196.927 20.2667 196.127 21.1733 195.273 22C194.42 22.8267 193.5 23.5867 192.513 24.28C190.46 25.7733 188.727 26.52 187.313 26.52ZM187.553 20.52C188.567 20.52 189.887 20.0133 191.513 19C192.047 18.6267 192.567 18.2133 193.073 17.76C193.607 17.28 194.033 16.8 194.353 16.32C194.7 15.84 194.873 15.4133 194.873 15.04C194.873 14.6933 194.593 14.52 194.033 14.52C193.233 14.52 192.113 15.12 190.673 16.32C189.98 16.9067 189.313 17.5467 188.673 18.24C188.033 18.9333 187.487 19.6667 187.033 20.44C187.193 20.4933 187.367 20.52 187.553 20.52ZM200.147 26.08C198.894 26.08 197.96 25.6667 197.347 24.84C196.76 24.0133 196.28 22.8667 195.907 21.4C195.427 21.88 195.094 22.12 194.907 22.12C194.774 22.12 194.707 22.0133 194.707 21.8C194.707 21.64 194.774 21.4933 194.907 21.36C194.907 21.36 195.24 20.9467 195.907 20.12C196.6 19.2933 197.76 18.1333 199.387 16.64L204.427 11.92C205.12 11.2533 205.667 10.7467 206.067 10.4C206.494 10.0533 206.8 9.88 206.987 9.88C207.84 9.88 208.267 10.2 208.267 10.84C208.267 11.16 208.094 11.5333 207.747 11.96C207.48 12.28 207.28 12.5333 207.147 12.72C207.04 12.88 206.974 12.9733 206.947 13C206.467 13.8267 206.027 15.3067 205.627 17.44C205.334 19.0133 205.08 20.3067 204.867 21.32C204.654 22.3333 204.48 23.0667 204.347 23.52C205.467 23.4933 206.574 23.1467 207.667 22.48C208.76 21.8133 209.934 20.72 211.187 19.2C211.24 19.1467 211.32 19.0667 211.427 18.96C211.534 18.8533 211.64 18.8 211.747 18.8C211.907 18.8 211.987 18.8667 211.987 19C211.987 19.1333 211.947 19.2667 211.867 19.4C211.787 19.5333 211.707 19.6533 211.627 19.76C210.8 20.7467 210.027 21.56 209.307 22.2C208.587 22.8133 207.827 23.3067 207.027 23.68C206.227 24.0267 205.28 24.32 204.187 24.56L202.907 25.4C202.56 25.64 202.147 25.8133 201.667 25.92C201.187 26.0267 200.68 26.08 200.147 26.08ZM200.627 24.04C201.24 24.04 201.747 23.8933 202.147 23.6C202.44 23.44 202.72 23 202.987 22.28C203.28 21.5333 203.56 20.6133 203.827 19.52C204.04 18.5867 204.2 17.68 204.307 16.8C204.44 15.8933 204.56 15.0267 204.667 14.2L204.827 12.84C204.214 13.2933 203.44 13.9467 202.507 14.8C201.574 15.6533 200.654 16.5467 199.747 17.48C198.84 18.4133 198.254 19.1067 197.987 19.56C197.72 19.9867 197.574 20.3067 197.547 20.52C197.44 21.5867 197.694 22.44 198.307 23.08C198.947 23.72 199.72 24.04 200.627 24.04ZM214.522 26.08C213.269 26.08 212.335 25.6667 211.722 24.84C211.135 24.0133 210.655 22.8667 210.282 21.4C209.802 21.88 209.469 22.12 209.282 22.12C209.149 22.12 209.082 22.0133 209.082 21.8C209.082 21.64 209.149 21.4933 209.282 21.36C209.282 21.36 209.615 20.9467 210.282 20.12C210.975 19.2933 212.135 18.1333 213.762 16.64L218.802 11.92C219.495 11.2533 220.042 10.7467 220.442 10.4C220.869 10.0533 221.175 9.88 221.362 9.88C222.215 9.88 222.642 10.2 222.642 10.84C222.642 11.16 222.469 11.5333 222.122 11.96C221.855 12.28 221.655 12.5333 221.522 12.72C221.415 12.88 221.349 12.9733 221.322 13C220.842 13.8267 220.402 15.3067 220.002 17.44C219.709 19.0133 219.455 20.3067 219.242 21.32C219.029 22.3333 218.855 23.0667 218.722 23.52C219.842 23.4933 220.949 23.1467 222.042 22.48C223.135 21.8133 224.309 20.72 225.562 19.2C225.615 19.1467 225.695 19.0667 225.802 18.96C225.909 18.8533 226.015 18.8 226.122 18.8C226.282 18.8 226.362 18.8667 226.362 19C226.362 19.1333 226.322 19.2667 226.242 19.4C226.162 19.5333 226.082 19.6533 226.002 19.76C225.175 20.7467 224.402 21.56 223.682 22.2C222.962 22.8133 222.202 23.3067 221.402 23.68C220.602 24.0267 219.655 24.32 218.562 24.56L217.282 25.4C216.935 25.64 216.522 25.8133 216.042 25.92C215.562 26.0267 215.055 26.08 214.522 26.08ZM215.002 24.04C215.615 24.04 216.122 23.8933 216.522 23.6C216.815 23.44 217.095 23 217.362 22.28C217.655 21.5333 217.935 20.6133 218.202 19.52C218.415 18.5867 218.575 17.68 218.682 16.8C218.815 15.8933 218.935 15.0267 219.042 14.2L219.202 12.84C218.589 13.2933 217.815 13.9467 216.882 14.8C215.949 15.6533 215.029 16.5467 214.122 17.48C213.215 18.4133 212.629 19.1067 212.362 19.56C212.095 19.9867 211.949 20.3067 211.922 20.52C211.815 21.5867 212.069 22.44 212.682 23.08C213.322 23.72 214.095 24.04 215.002 24.04Z" fill="black"/>
</svg>
