<svg width="26" height="26" viewBox="0 0 26 26" fill="none" xmlns="http://www.w3.org/2000/svg">
<path d="M9.84 3.24C9.38667 3.24 8.98667 3.09333 8.64 2.8C8.32 2.50667 8.16 2.17333 8.16 1.8C8.16 1.05333 8.66667 0.679999 9.68 0.679999C10.0533 0.679999 10.4267 0.813332 10.8 1.08C11.1733 1.32 11.36 1.62667 11.36 2C11.36 2.32 11.1867 2.61333 10.84 2.88C10.4933 3.12 10.16 3.24 9.84 3.24ZM2.44 17.44C1.85333 17.44 1.37333 17.2533 1 16.88C0.6 16.48 0.4 15.7867 0.4 14.8C0.4 14.24 0.533333 13.6 0.8 12.88C1.04 12.1333 1.34667 11.3867 1.72 10.64C2.12 9.89333 2.50667 9.22667 2.88 8.64C4.37333 6.21333 5.6 4.98667 6.56 4.96C6.8 4.96 7.09333 5.06667 7.44 5.28C7.78667 5.46667 7.96 5.68 7.96 5.92C7.96 5.92 6.94667 7.22667 4.92 9.84C2.92 12.4267 1.92 14.2667 1.92 15.36C1.92 16.2133 2.25333 16.64 2.92 16.64C3.34667 16.64 3.89333 16.4667 4.56 16.12C5.25333 15.7467 5.97333 15.28 6.72 14.72C7.46667 14.16 8.17333 13.56 8.84 12.92C9.53333 12.28 10.0933 11.6933 10.52 11.16C10.7867 10.8133 11.0133 10.5733 11.2 10.44C11.4133 10.3067 11.5467 10.24 11.6 10.24C11.7067 10.24 11.76 10.32 11.76 10.48C11.76 10.6133 11.6 10.88 11.28 11.28C10.9867 11.68 10.5733 12.1467 10.04 12.68C9.4 13.32 8.69333 14.0133 7.92 14.76C7.14667 15.5067 6.30667 16.1467 5.4 16.68C4.49333 17.1867 3.50667 17.44 2.44 17.44ZM9.58344 25.2C8.78344 25.2 8.10344 24.8667 7.54344 24.2C6.98344 23.5333 6.6901 22.8133 6.66344 22.04C6.74344 21.72 6.86344 21.56 7.02344 21.56C7.18344 21.56 7.27677 21.76 7.30344 22.16C7.3301 22.5867 7.54344 23 7.94344 23.4C8.34344 23.8 8.7301 24 9.10344 24C10.6501 24 12.2768 23 13.9834 21C14.5968 20.28 15.2234 19.4267 15.8634 18.44C16.5301 17.48 17.1701 16.3867 17.7834 15.16L19.7834 11.2L16.7834 14.24C15.8501 15.1733 15.0368 15.8667 14.3434 16.32C13.6768 16.7733 13.1568 17 12.7834 17C12.1434 17 11.5034 16.7733 10.8634 16.32C10.2234 15.84 9.86344 15.2933 9.78344 14.68C9.51677 12.6267 10.8101 10.1867 13.6634 7.36C16.5168 4.56 19.0634 3.16 21.3034 3.16C21.9168 3.16 22.3968 3.30667 22.7434 3.6C22.9301 3.76 23.0634 4 23.1434 4.32C23.2501 4.64 23.3301 4.8 23.3834 4.8C23.4901 4.8 23.5834 4.78667 23.6634 4.76C23.7434 4.70667 23.8368 4.68 23.9434 4.68C24.2901 4.68 24.5701 4.8 24.7834 5.04C25.0234 5.28 25.1034 5.52 25.0234 5.76C24.9968 6 24.6101 6.72 23.8634 7.92C23.3834 8.72 22.8368 9.69333 22.2234 10.84C21.6101 11.96 20.9568 13.1333 20.2634 14.36C19.5968 15.56 18.9434 16.68 18.3034 17.72C17.6634 18.7867 17.0901 19.6533 16.5834 20.32C14.1301 23.5733 11.7968 25.2 9.58344 25.2ZM12.4234 16.08C13.9701 16.08 16.0768 14.3867 18.7434 11L22.9834 5.16C22.8234 4.78667 22.4901 4.6 21.9834 4.6C20.3301 4.6 18.1168 5.90667 15.3434 8.52C12.4634 11.24 11.1701 13.44 11.4634 15.12C11.5968 15.76 11.9168 16.08 12.4234 16.08Z" fill="black"/>
</svg>
