<svg width="51" height="21" viewBox="0 0 51 21" fill="none" xmlns="http://www.w3.org/2000/svg">
<path d="M9.84 6.24C9.38667 6.24 8.98667 6.09333 8.64 5.8C8.32 5.50667 8.16 5.17333 8.16 4.8C8.16 4.05333 8.66667 3.68 9.68 3.68C10.0533 3.68 10.4267 3.81333 10.8 4.08C11.1733 4.32 11.36 4.62667 11.36 5C11.36 5.32 11.1867 5.61333 10.84 5.88C10.4933 6.12 10.16 6.24 9.84 6.24ZM2.44 20.44C1.85333 20.44 1.37333 20.2533 1 19.88C0.6 19.48 0.4 18.7867 0.4 17.8C0.4 17.24 0.533333 16.6 0.8 15.88C1.04 15.1333 1.34667 14.3867 1.72 13.64C2.12 12.8933 2.50667 12.2267 2.88 11.64C4.37333 9.21333 5.6 7.98667 6.56 7.96C6.8 7.96 7.09333 8.06667 7.44 8.28C7.78667 8.46667 7.96 8.68 7.96 8.92C7.96 8.92 6.94667 10.2267 4.92 12.84C2.92 15.4267 1.92 17.2667 1.92 18.36C1.92 19.2133 2.25333 19.64 2.92 19.64C3.34667 19.64 3.89333 19.4667 4.56 19.12C5.25333 18.7467 5.97333 18.28 6.72 17.72C7.46667 17.16 8.17333 16.56 8.84 15.92C9.53333 15.28 10.0933 14.6933 10.52 14.16C10.7867 13.8133 11.0133 13.5733 11.2 13.44C11.4133 13.3067 11.5467 13.24 11.6 13.24C11.7067 13.24 11.76 13.32 11.76 13.48C11.76 13.6133 11.6 13.88 11.28 14.28C10.9867 14.68 10.5733 15.1467 10.04 15.68C9.4 16.32 8.69333 17.0133 7.92 17.76C7.14667 18.5067 6.30667 19.1467 5.4 19.68C4.49333 20.1867 3.50667 20.44 2.44 20.44ZM12.5034 20.24C11.6501 20.24 10.9701 20.04 10.4634 19.64C9.98344 19.2133 9.74344 18.4667 9.74344 17.4C9.74344 16.7867 9.9301 16.0133 10.3034 15.08C10.6768 14.12 11.1434 13.0933 11.7034 12C12.2634 10.9067 12.8234 9.82667 13.3834 8.76C13.0368 8.84 12.7301 8.88 12.4634 8.88C11.6634 8.88 11.2634 8.57333 11.2634 7.96C11.2634 7.66667 11.3701 7.44 11.5834 7.28C11.8234 7.12 12.0368 7.02667 12.2234 7C12.2234 7 12.2501 7 12.3034 7C12.3834 7 12.4768 6.98667 12.5834 6.96H14.9034C15.3834 6.34667 15.8768 5.69333 16.3834 5C17.1034 4.09333 17.6768 3.56 18.1034 3.4H18.2234C18.4101 3.4 18.6768 3.49333 19.0234 3.68C19.4501 3.92 19.6634 4.16 19.6634 4.4C19.6634 4.74667 19.0234 5.64 17.7434 7.08C17.9834 7.10667 18.3301 7.12 18.7834 7.12C19.2368 7.12 19.7968 7.12 20.4634 7.12C20.7834 7.12 21.2368 7.12 21.8234 7.12C22.4368 7.12 23.0634 7.12 23.7034 7.12C24.3701 7.09333 24.9434 7.08 25.4234 7.08C25.9034 7.05333 26.1701 7.04 26.2234 7.04C26.3034 7.06667 26.3434 7.10667 26.3434 7.16C26.3434 7.4 24.7701 7.72 21.6234 8.12C19.8368 8.36 18.4634 8.54667 17.5034 8.68C16.5701 8.81333 16.0634 8.89333 15.9834 8.92C15.6101 9.24 15.1568 9.78667 14.6234 10.56C14.0901 11.3333 13.5568 12.2 13.0234 13.16C12.4901 14.12 12.0368 15.04 11.6634 15.92C11.3168 16.7733 11.1434 17.44 11.1434 17.92C11.1434 18.3467 11.3034 18.7067 11.6234 19C11.9434 19.2667 12.4634 19.4 13.1834 19.4C13.6634 19.4 14.2368 19.2933 14.9034 19.08C15.5701 18.8667 16.1968 18.6267 16.7834 18.36C17.3968 18.0667 17.8368 17.84 18.1034 17.68C18.7968 17.2533 19.5568 16.6933 20.3834 16C21.2368 15.28 22.0768 14.4667 22.9034 13.56C23.2768 13.1867 23.5301 13 23.6634 13C23.7434 13 23.7834 13.0533 23.7834 13.16C23.7834 13.3733 23.5834 13.72 23.1834 14.2C22.5434 14.9733 21.8234 15.72 21.0234 16.44C20.2501 17.1333 19.3834 17.7733 18.4234 18.36C17.3301 19.0267 16.2768 19.5067 15.2634 19.8C14.2768 20.0933 13.3568 20.24 12.5034 20.24ZM24.5784 20.2C23.9384 20.2 23.2984 19.9733 22.6584 19.52C22.0184 19.0667 21.6584 18.5333 21.5784 17.92C21.3118 15.8667 22.6051 13.4267 25.4584 10.6C28.2851 7.77333 30.8318 6.36 33.0984 6.36C33.7118 6.36 34.1918 6.50667 34.5384 6.8C34.7251 6.98667 34.8584 7.24 34.9384 7.56C35.0451 7.88 35.1251 8.04 35.1784 8.04C35.2851 8.04 35.3784 8.02667 35.4584 8C35.5384 7.94667 35.6318 7.92 35.7384 7.92C36.0584 7.92 36.3384 8.04 36.5784 8.28C36.8184 8.52 36.9518 8.73333 36.9784 8.92C37.0051 8.97333 36.1518 10.2933 34.4184 12.88C32.6851 15.4133 31.8984 17.1333 32.0584 18.04C32.1918 18.6533 32.4851 18.96 32.9384 18.96C34.3251 18.96 36.8584 16.6667 40.5384 12.08C40.6184 11.9733 40.6984 11.92 40.7784 11.92C40.9118 11.92 40.9784 12.0133 40.9784 12.2C40.9784 12.4133 40.8584 12.68 40.6184 13C37.2318 17.56 34.6318 19.84 32.8184 19.84C32.5784 19.84 32.3518 19.8 32.1384 19.72C30.9651 19.2667 30.3784 18.3867 30.3784 17.08C30.3784 16.6267 30.4318 16.1733 30.5384 15.72L28.0584 18.12C27.3118 18.8667 26.6318 19.4 26.0184 19.72C25.4318 20.04 24.9518 20.2 24.5784 20.2ZM24.2184 19.32C25.7651 19.32 27.8718 17.6267 30.5384 14.24L34.7784 8.4C34.5651 8.02667 34.2184 7.84 33.7384 7.84C32.1118 7.84 29.9118 9.14667 27.1384 11.76C24.2584 14.4267 22.9651 16.6267 23.2584 18.36C23.3918 19 23.7118 19.32 24.2184 19.32ZM41.4228 20.08C40.6495 20.08 39.9295 19.8933 39.2628 19.52C38.5961 19.12 38.2628 18.4667 38.2628 17.56C38.2628 16.3067 38.7028 14.8133 39.5828 13.08C40.4895 11.3467 41.5161 9.54667 42.6628 7.68C45.7828 2.61333 47.9961 0.079999 49.3028 0.079999C49.5695 0.079999 49.8361 0.186666 50.1028 0.4C50.3961 0.586666 50.5561 0.799999 50.5828 1.04L47.7828 4.8C46.6895 6.26667 45.7028 7.62667 44.8228 8.88C43.9428 10.1067 43.1828 11.2133 42.5428 12.2C42.2228 12.7067 41.8628 13.28 41.4628 13.92C41.0628 14.56 40.7028 15.2267 40.3828 15.92C40.0895 16.5867 39.9428 17.2667 39.9428 17.96C39.9428 18.28 40.0361 18.5733 40.2228 18.84C40.4095 19.08 40.7428 19.2 41.2228 19.2C42.0761 19.2 43.1961 18.7467 44.5828 17.84C45.9695 16.9067 47.3428 15.6267 48.7028 14C48.8361 13.84 48.9828 13.6933 49.1428 13.56C49.3028 13.4267 49.4361 13.36 49.5428 13.36C49.6761 13.36 49.7428 13.44 49.7428 13.6C49.7428 13.68 49.6495 13.84 49.4628 14.08C49.3028 14.2933 49.1695 14.4667 49.0628 14.6L48.1028 15.68C47.5695 16.2667 46.9295 16.9067 46.1828 17.6C45.4628 18.2933 44.6895 18.88 43.8628 19.36C43.0628 19.84 42.2495 20.08 41.4228 20.08Z" fill="black"/>
</svg>
