<svg width="36" height="29" viewBox="0 0 36 29" fill="none" xmlns="http://www.w3.org/2000/svg">
<path d="M12.16 28.8C11.0667 28.8 9.70667 28.1467 8.08 26.84C6.93333 26.6533 5.94667 26.4 5.12 26.08C4.32 25.7867 3.65333 25.4267 3.12 25C2.37333 24.36 1.72 23.5067 1.16 22.44C0.6 21.3733 0.32 20.3467 0.32 19.36C0.32 18.6133 0.493333 17.9467 0.84 17.36C1.64 15.9467 2.65333 15.24 3.88 15.24C4.81333 15.24 5.36 16.0267 5.52 17.6C5.70667 19.0667 5.85333 20.24 5.96 21.12C6.09333 21.9733 6.2 22.5333 6.28 22.8C6.68 24.1067 7.36 25.2133 8.32 26.12C9.44 26.36 10.6533 26.48 11.96 26.48C14.84 26.48 17.6 25.9333 20.24 24.84C21.36 24.36 22.4533 23.7333 23.52 22.96C24.5867 22.1867 25.4667 21.3333 26.16 20.4C26.8533 19.4667 27.2 18.56 27.2 17.68C27.2 16.4267 26.0933 15.4533 23.88 14.76L16.84 13.16C15.4 12.84 14.24 12.28 13.36 11.48C12.5067 10.6533 12.08 9.72 12.08 8.68C12.08 7.08 13.08 5.48 15.08 3.88C16.0933 3.05333 17.28 2.36 18.64 1.8C20 1.21333 21.4267 0.773331 22.92 0.479999C24.44 0.16 25.8933 0 27.28 0C29.2533 0 30.9333 0.306666 32.32 0.919998C33.7333 1.53333 34.6133 2.42666 34.96 3.6C35.04 3.86667 35.08 4.16 35.08 4.48C35.08 6.10667 34.2667 7.24 32.64 7.88C31.6533 8.28 30.8133 8.48 30.12 8.48C29.6933 8.48 29.36 8.4 29.12 8.24C29.0667 8.18667 29.04 8.12 29.04 8.04C29.04 7.85333 29.4133 7.74667 30.16 7.72C30.6133 7.69333 30.9867 7.65333 31.28 7.6C31.5733 7.54667 31.7867 7.49333 31.92 7.44C32.9333 6.90667 33.44 6.12 33.44 5.08C33.44 4.54667 33.2933 3.98667 33 3.4C32.1733 1.88 30.1067 1.12 26.8 1.12C25.6 1.12 24.36 1.25333 23.08 1.52C21.8 1.76 20.5867 2.13333 19.44 2.64C18.2933 3.12 17.32 3.73333 16.52 4.48C15.1333 5.76 14.44 6.90667 14.44 7.92C14.44 8.69333 14.8133 9.38667 15.56 10C16.3333 10.5867 17.4933 11.0267 19.04 11.32L23.76 12.2C25.5733 12.5467 27.04 13.0667 28.16 13.76C29.28 14.4267 29.84 15.4533 29.84 16.84C29.84 18.0667 29.5333 19.2133 28.92 20.28C28.3067 21.3467 27.48 22.3067 26.44 23.16C25.4267 23.9867 24.2667 24.68 22.96 25.24C20 26.5467 16.5067 27.2 12.48 27.2C11.9733 27.2 11.4667 27.1867 10.96 27.16C10.4533 27.1333 9.96 27.0933 9.48 27.04C9.85333 27.2533 10.32 27.4667 10.88 27.68C11.4667 27.8933 12.1333 28.0933 12.88 28.28C12.96 28.3067 13 28.36 13 28.44C13 28.68 12.72 28.8 12.16 28.8ZM6.88 25.72C6.16 24.92 5.6 24.0933 5.2 23.24C4.61333 21.9067 4.17333 20.2667 3.88 18.32C3.66667 16.9067 3.44 16.2 3.2 16.2C2.98667 16.2 2.69333 16.36 2.32 16.68C1.97333 17 1.8 17.68 1.8 18.72C1.8 20.7467 2.52 22.5067 3.96 24C4.68 24.7467 5.65333 25.32 6.88 25.72Z" fill="black"/>
</svg>
