<svg width="82" height="18" viewBox="0 0 82 18" fill="none" xmlns="http://www.w3.org/2000/svg">
<path d="M2.88 17.44C1.68 17.44 1.08 16.68 1.08 15.16C1.08 14.5733 1.25333 13.88 1.6 13.08C1.97333 12.2533 2.49333 11.3867 3.16 10.48C3.16 10.48 2.92 10.7067 2.44 11.16C1.96 11.6133 1.41333 12.1867 0.8 12.88C0.693333 12.9867 0.56 13.04 0.4 13.04C0.293333 13.04 0.24 12.9733 0.24 12.84C0.24 12.7067 0.36 12.48 0.6 12.16L6.12 5.68C6.81333 4.88 7.57333 4.48 8.4 4.48C9.01333 4.48 9.32 4.72 9.32 5.2C9.32 5.38667 9.24 5.56 9.08 5.72C8.57333 6.2 7.94667 6.88 7.2 7.76C6.48 8.64 5.77333 9.58667 5.08 10.6C4.38667 11.6133 3.8 12.5867 3.32 13.52C2.86667 14.4267 2.64 15.16 2.64 15.72C2.64 16.2 2.8 16.44 3.12 16.44C3.30667 16.44 3.6 16.3733 4 16.24C4.4 16.08 4.93333 15.7733 5.6 15.32C6.26667 14.84 7.06667 14.1067 8 13.12C8.16 12.96 8.58667 12.48 9.28 11.68C9.97333 10.88 10.9067 9.73333 12.08 8.24C14.16 5.65333 15.52 4.36 16.16 4.36C17.04 4.36 17.52 4.72 17.6 5.44C17.6533 5.68 17.0933 6.46667 15.92 7.8C14.4 9.64 13.36 10.96 12.8 11.76C11.76 13.28 11.24 14.4667 11.24 15.32C11.24 15.9067 11.44 16.2 11.84 16.2C12.24 16.2 12.7467 16.0133 13.36 15.64C14 15.24 14.6667 14.7467 15.36 14.16C16.0533 13.5467 16.72 12.92 17.36 12.28C18.0267 11.6133 18.6 11 19.08 10.44C19.24 10.2533 19.4 10.16 19.56 10.16C19.72 10.16 19.8 10.24 19.8 10.4C19.8 10.4533 19.7867 10.5333 19.76 10.64C19.7333 10.7467 19.6533 10.8667 19.52 11C19.0933 11.48 18.5467 12.08 17.88 12.8C17.2133 13.4933 16.4933 14.1867 15.72 14.88C14.9467 15.5733 14.2 16.1467 13.48 16.6C12.76 17.0533 12.1467 17.28 11.64 17.28C11.0267 17.28 10.4933 17.12 10.04 16.8C9.58667 16.4533 9.36 15.9867 9.36 15.4C9.36 14.8133 9.45333 14.2267 9.64 13.64C9.82667 13.0267 9.97333 12.5067 10.08 12.08C8.82667 13.5467 7.72 14.6667 6.76 15.44C5.82667 16.2133 5.04 16.7333 4.4 17C3.76 17.2933 3.25333 17.44 2.88 17.44ZM21.0322 17.52C20.1789 17.52 19.4055 17.2533 18.7122 16.72C18.0189 16.16 17.6722 15.4267 17.6722 14.52C17.6722 12.6267 18.8322 10.4667 21.1522 8.04C23.5255 5.58667 25.6455 4.36 27.5122 4.36C28.1522 4.36 28.6589 4.53333 29.0322 4.88C29.4055 5.2 29.5922 5.6 29.5922 6.08C29.5922 6.74667 29.4322 7.36 29.1122 7.92C28.7389 8.61333 28.2055 8.96 27.5122 8.96C26.8189 8.96 26.4722 8.74667 26.4722 8.32C26.4722 8.02667 26.6455 7.58667 26.9922 7C27.3655 6.38667 27.5522 6.06667 27.5522 6.04C27.5522 5.98667 27.5122 5.96 27.4322 5.96C26.6855 6.04 25.6455 6.58667 24.3122 7.6C23.7255 8.05333 23.2055 8.48 22.7522 8.88C22.3255 9.28 21.9789 9.66667 21.7122 10.04L20.1522 12.32C19.9922 12.56 19.8189 12.9733 19.6322 13.56C19.4722 14.1467 19.3922 14.5867 19.3922 14.88C19.3922 15.4133 19.5655 15.8533 19.9122 16.2C20.2855 16.5467 20.7522 16.72 21.3122 16.72C22.6455 16.72 24.4055 15.8533 26.5922 14.12C28.3522 12.7333 29.7655 11.3333 30.8322 9.92C30.9655 9.76 31.1255 9.68 31.3122 9.68C31.4989 9.68 31.5922 9.73333 31.5922 9.84C31.5922 9.92 31.5255 10.0533 31.3922 10.24C29.9255 12.1867 28.2055 13.8667 26.2322 15.28C24.1255 16.7733 22.3922 17.52 21.0322 17.52ZM32.3603 17.52C31.507 17.52 30.7336 17.2533 30.0403 16.72C29.347 16.16 29.0003 15.4267 29.0003 14.52C29.0003 12.6267 30.1603 10.4667 32.4803 8.04C34.8536 5.58667 36.9736 4.36 38.8403 4.36C39.4803 4.36 39.987 4.53333 40.3603 4.88C40.7336 5.2 40.9203 5.6 40.9203 6.08C40.9203 6.74667 40.7603 7.36 40.4403 7.92C40.067 8.61333 39.5336 8.96 38.8403 8.96C38.147 8.96 37.8003 8.74667 37.8003 8.32C37.8003 8.02667 37.9736 7.58667 38.3203 7C38.6936 6.38667 38.8803 6.06667 38.8803 6.04C38.8803 5.98667 38.8403 5.96 38.7603 5.96C38.0136 6.04 36.9736 6.58667 35.6403 7.6C35.0536 8.05333 34.5336 8.48 34.0803 8.88C33.6536 9.28 33.307 9.66667 33.0403 10.04L31.4803 12.32C31.3203 12.56 31.147 12.9733 30.9603 13.56C30.8003 14.1467 30.7203 14.5867 30.7203 14.88C30.7203 15.4133 30.8936 15.8533 31.2403 16.2C31.6136 16.5467 32.0803 16.72 32.6403 16.72C33.9736 16.72 35.7336 15.8533 37.9203 14.12C39.6803 12.7333 41.0936 11.3333 42.1603 9.92C42.2936 9.76 42.4536 9.68 42.6403 9.68C42.827 9.68 42.9203 9.73333 42.9203 9.84C42.9203 9.92 42.8536 10.0533 42.7203 10.24C41.2536 12.1867 39.5336 13.8667 37.5603 15.28C35.4536 16.7733 33.7203 17.52 32.3603 17.52ZM42.6884 17.52C41.8351 17.52 41.0618 17.2533 40.3684 16.72C39.6751 16.16 39.3284 15.4267 39.3284 14.52C39.3284 12.6267 40.4884 10.4667 42.8084 8.04C45.1818 5.58667 47.3018 4.36 49.1684 4.36C49.7818 4.36 50.2751 4.53333 50.6484 4.88C51.0484 5.2 51.2484 5.6 51.2484 6.08C51.2484 7.57333 50.0618 9.04 47.6884 10.48C45.5818 11.76 43.8084 12.4 42.3684 12.4C42.1551 12.4 41.9684 12.3733 41.8084 12.32C41.4084 13.04 41.2084 13.8 41.2084 14.6C41.2084 15.9867 41.8618 16.68 43.1684 16.68C44.5018 16.68 46.2218 15.7867 48.3284 14C49.9551 12.6933 51.3418 11.3067 52.4884 9.84C52.7284 9.52 52.9418 9.36 53.1284 9.36C53.2884 9.36 53.3684 9.44 53.3684 9.6C53.3684 9.76 53.2618 9.98667 53.0484 10.28C52.3018 11.2667 51.5018 12.1733 50.6484 13C49.7951 13.8267 48.8751 14.5867 47.8884 15.28C45.8351 16.7733 44.1018 17.52 42.6884 17.52ZM42.9284 11.52C43.9418 11.52 45.2618 11.0133 46.8884 10C47.4218 9.62667 47.9418 9.21333 48.4484 8.76C48.9818 8.28 49.4084 7.8 49.7284 7.32C50.0751 6.84 50.2484 6.41333 50.2484 6.04C50.2484 5.69333 49.9684 5.52 49.4084 5.52C48.6084 5.52 47.4884 6.12 46.0484 7.32C45.3551 7.90667 44.6884 8.54667 44.0484 9.24C43.4084 9.93333 42.8618 10.6667 42.4084 11.44C42.5684 11.4933 42.7418 11.52 42.9284 11.52ZM55.5219 17.08C54.2685 17.08 53.3352 16.6667 52.7219 15.84C52.1352 15.0133 51.6552 13.8667 51.2819 12.4C50.8019 12.88 50.4685 13.12 50.2819 13.12C50.1485 13.12 50.0819 13.0133 50.0819 12.8C50.0819 12.64 50.1485 12.4933 50.2819 12.36C50.2819 12.36 50.6152 11.9467 51.2819 11.12C51.9752 10.2933 53.1352 9.13333 54.7619 7.64L59.8019 2.92C60.4952 2.25333 61.0419 1.74667 61.4419 1.4C61.8685 1.05333 62.1752 0.879999 62.3619 0.879999C63.2152 0.879999 63.6419 1.2 63.6419 1.84C63.6419 2.16 63.4685 2.53333 63.1219 2.96C62.8552 3.28 62.6552 3.53333 62.5219 3.72C62.4152 3.88 62.3485 3.97333 62.3219 4C61.8419 4.82667 61.4019 6.30667 61.0019 8.44C60.7085 10.0133 60.4552 11.3067 60.2419 12.32C60.0285 13.3333 59.8552 14.0667 59.7219 14.52C60.8419 14.4933 61.9485 14.1467 63.0419 13.48C64.1352 12.8133 65.3085 11.72 66.5619 10.2C66.6152 10.1467 66.6952 10.0667 66.8019 9.96C66.9085 9.85333 67.0152 9.8 67.1219 9.8C67.2819 9.8 67.3619 9.86667 67.3619 10C67.3619 10.1333 67.3219 10.2667 67.2419 10.4C67.1619 10.5333 67.0819 10.6533 67.0019 10.76C66.1752 11.7467 65.4019 12.56 64.6819 13.2C63.9619 13.8133 63.2019 14.3067 62.4019 14.68C61.6019 15.0267 60.6552 15.32 59.5619 15.56L58.2819 16.4C57.9352 16.64 57.5219 16.8133 57.0419 16.92C56.5619 17.0267 56.0552 17.08 55.5219 17.08ZM56.0019 15.04C56.6152 15.04 57.1219 14.8933 57.5219 14.6C57.8152 14.44 58.0952 14 58.3619 13.28C58.6552 12.5333 58.9352 11.6133 59.2019 10.52C59.4152 9.58667 59.5752 8.68 59.6819 7.8C59.8152 6.89333 59.9352 6.02667 60.0419 5.2L60.2019 3.84C59.5885 4.29333 58.8152 4.94667 57.8819 5.8C56.9485 6.65333 56.0285 7.54667 55.1219 8.48C54.2152 9.41333 53.6285 10.1067 53.3619 10.56C53.0952 10.9867 52.9485 11.3067 52.9219 11.52C52.8152 12.5867 53.0685 13.44 53.6819 14.08C54.3219 14.72 55.0952 15.04 56.0019 15.04ZM69.8969 17.08C68.6435 17.08 67.7102 16.6667 67.0969 15.84C66.5102 15.0133 66.0302 13.8667 65.6569 12.4C65.1769 12.88 64.8435 13.12 64.6569 13.12C64.5235 13.12 64.4569 13.0133 64.4569 12.8C64.4569 12.64 64.5235 12.4933 64.6569 12.36C64.6569 12.36 64.9902 11.9467 65.6569 11.12C66.3502 10.2933 67.5102 9.13333 69.1369 7.64L74.1769 2.92C74.8702 2.25333 75.4169 1.74667 75.8169 1.4C76.2435 1.05333 76.5502 0.879999 76.7369 0.879999C77.5902 0.879999 78.0169 1.2 78.0169 1.84C78.0169 2.16 77.8435 2.53333 77.4969 2.96C77.2302 3.28 77.0302 3.53333 76.8969 3.72C76.7902 3.88 76.7235 3.97333 76.6969 4C76.2169 4.82667 75.7769 6.30667 75.3769 8.44C75.0835 10.0133 74.8302 11.3067 74.6169 12.32C74.4035 13.3333 74.2302 14.0667 74.0969 14.52C75.2169 14.4933 76.3235 14.1467 77.4169 13.48C78.5102 12.8133 79.6835 11.72 80.9369 10.2C80.9902 10.1467 81.0702 10.0667 81.1769 9.96C81.2835 9.85333 81.3902 9.8 81.4969 9.8C81.6569 9.8 81.7369 9.86667 81.7369 10C81.7369 10.1333 81.6969 10.2667 81.6169 10.4C81.5369 10.5333 81.4569 10.6533 81.3769 10.76C80.5502 11.7467 79.7769 12.56 79.0569 13.2C78.3369 13.8133 77.5769 14.3067 76.7769 14.68C75.9769 15.0267 75.0302 15.32 73.9369 15.56L72.6569 16.4C72.3102 16.64 71.8969 16.8133 71.4169 16.92C70.9369 17.0267 70.4302 17.08 69.8969 17.08ZM70.3769 15.04C70.9902 15.04 71.4969 14.8933 71.8969 14.6C72.1902 14.44 72.4702 14 72.7369 13.28C73.0302 12.5333 73.3102 11.6133 73.5769 10.52C73.7902 9.58667 73.9502 8.68 74.0569 7.8C74.1902 6.89333 74.3102 6.02667 74.4169 5.2L74.5769 3.84C73.9635 4.29333 73.1902 4.94667 72.2569 5.8C71.3235 6.65333 70.4035 7.54667 69.4969 8.48C68.5902 9.41333 68.0035 10.1067 67.7369 10.56C67.4702 10.9867 67.3235 11.3067 67.2969 11.52C67.1902 12.5867 67.4435 13.44 68.0569 14.08C68.6969 14.72 69.4702 15.04 70.3769 15.04Z" fill="black"/>
</svg>
